<?xml version="1.0" encoding="utf-8"?>
<!-- Generator: Adobe Illustrator 27.8.1, SVG Export Plug-In . SVG Version: 6.00 Build 0)  -->
<svg version="1.1" id="_x31__PERCENT" xmlns="http://www.w3.org/2000/svg" xmlns:xlink="http://www.w3.org/1999/xlink" x="0px"
	 y="0px" viewBox="0 0 155.4 194" style="enable-background:new 0 0 155.4 194;" xml:space="preserve">
<style type="text/css">
	.st0{fill:#292929;}
</style>
<g>
	<path class="st0" d="M102,48.4c0-1.5-1.2-2.7-2.7-2.7c-1.5,0-2.7,1.2-2.7,2.7c0,1.5,1.2,2.7,2.7,2.7C100.8,51.1,102,49.9,102,48.4z
		"/>
	<path class="st0" d="M126.4,78c0-0.1,0.1-0.1,0.1-0.2c0.1-0.3,0.3-0.7,0.4-1c0-0.1,0.1-0.1,0.1-0.2c0.1-0.3,0.3-0.7,0.4-1
		c0-0.1,0.1-0.1,0.1-0.2c0.1-0.3,0.2-0.7,0.4-1c0-0.1,0.1-0.2,0.1-0.3c0.1-0.3,0.2-0.7,0.3-1c0-0.1,0.1-0.2,0.1-0.3
		c0.1-0.3,0.2-0.6,0.3-1c0-0.1,0.1-0.2,0.1-0.3c0.1-0.3,0.2-0.6,0.3-0.9c0-0.1,0.1-0.2,0.1-0.3c0.1-0.3,0.2-0.6,0.2-0.9
		c0-0.1,0.1-0.2,0.1-0.4c0.1-0.3,0.1-0.6,0.2-0.9c0-0.1,0.1-0.3,0.1-0.4c0.1-0.3,0.1-0.6,0.2-0.9c0-0.1,0.1-0.3,0.1-0.4
		c0.1-0.3,0.1-0.6,0.1-0.9c0-0.1,0.1-0.3,0.1-0.4c0-0.3,0.1-0.6,0.1-0.9c0-0.2,0-0.3,0.1-0.5c0-0.3,0.1-0.6,0.1-0.9
		c0-0.2,0-0.3,0.1-0.5c0-0.3,0.1-0.6,0.1-0.9c0-0.2,0-0.3,0-0.5c0-0.3,0-0.6,0.1-0.9c0-0.2,0-0.3,0-0.5c0-0.3,0-0.6,0-1
		c0-0.1,0-0.3,0-0.4c0-0.5,0-0.9,0-1.4c0-0.4,0-0.9,0-1.3c0-0.1,0-0.3,0-0.4c0-0.3,0-0.6,0-0.9c0-0.2,0-0.3,0-0.5
		c0-0.3,0-0.5-0.1-0.8c0-0.2,0-0.3,0-0.5c0-0.3,0-0.6-0.1-0.9c0-0.1,0-0.3,0-0.4c0-0.4-0.1-0.8-0.1-1.2c0,0,0,0,0,0
		c-0.1-0.4-0.1-0.8-0.2-1.2c0-0.1,0-0.3-0.1-0.4c0-0.3-0.1-0.6-0.1-0.8c0-0.2-0.1-0.3-0.1-0.5c0-0.3-0.1-0.5-0.1-0.8
		c0-0.2-0.1-0.3-0.1-0.5c-0.1-0.3-0.1-0.5-0.2-0.8c0-0.1-0.1-0.3-0.1-0.4c-0.1-0.4-0.2-0.7-0.3-1.1c0-0.1,0-0.1,0-0.2
		c-0.1-0.4-0.2-0.7-0.3-1.1c0-0.1-0.1-0.3-0.1-0.4c-0.1-0.2-0.1-0.5-0.2-0.7c0-0.2-0.1-0.3-0.2-0.5c-0.1-0.2-0.1-0.5-0.2-0.7
		c-0.1-0.2-0.1-0.3-0.2-0.5c-0.1-0.2-0.2-0.5-0.2-0.7c-0.1-0.2-0.1-0.3-0.2-0.5c-0.1-0.3-0.2-0.6-0.3-0.9c-0.1-0.2-0.1-0.3-0.2-0.5
		c-0.1-0.3-0.2-0.6-0.4-0.9c-0.1-0.2-0.1-0.3-0.2-0.5c-0.1-0.2-0.2-0.4-0.3-0.6c-0.1-0.2-0.2-0.3-0.2-0.5c-0.1-0.2-0.2-0.4-0.3-0.6
		c-0.1-0.2-0.2-0.3-0.2-0.5c-0.1-0.2-0.2-0.4-0.3-0.6c-0.1-0.2-0.2-0.3-0.3-0.5c-0.1-0.2-0.2-0.4-0.3-0.6c-0.1-0.3-0.3-0.5-0.4-0.8
		c-0.1-0.2-0.2-0.4-0.3-0.6c-0.1-0.2-0.2-0.4-0.3-0.5c-0.1-0.2-0.2-0.3-0.3-0.5c-0.1-0.2-0.2-0.4-0.3-0.5c-0.1-0.2-0.2-0.3-0.3-0.5
		c-0.1-0.2-0.2-0.4-0.3-0.5c-0.1-0.1-0.2-0.3-0.3-0.4c-0.1-0.2-0.2-0.4-0.4-0.6c-0.1-0.1-0.2-0.3-0.3-0.4c-0.3-0.4-0.5-0.8-0.8-1.2
		c-0.1-0.1-0.1-0.2-0.2-0.3c-0.1-0.2-0.3-0.4-0.4-0.6c-0.1-0.1-0.2-0.2-0.3-0.4c-0.1-0.2-0.3-0.4-0.4-0.6c-0.1-0.1-0.2-0.2-0.3-0.3
		c-0.2-0.2-0.3-0.4-0.5-0.6c-0.1-0.1-0.2-0.2-0.3-0.3c-0.2-0.2-0.3-0.4-0.5-0.6c0-0.1-0.1-0.1-0.1-0.2c-0.6-0.7-1.3-1.4-1.9-2.1
		c-0.1-0.1-0.1-0.1-0.2-0.2c-0.2-0.2-0.4-0.4-0.6-0.6c-0.1-0.1-0.2-0.2-0.2-0.2c-0.2-0.2-0.4-0.4-0.6-0.6c-0.1-0.1-0.1-0.1-0.2-0.2
		c-0.5-0.5-1-0.9-1.5-1.3c-0.5-0.4-1-0.9-1.5-1.3c0,0-0.1-0.1-0.1-0.1c-0.2-0.2-0.5-0.4-0.7-0.6c-0.1,0-0.1-0.1-0.2-0.1
		c-0.2-0.2-0.5-0.4-0.7-0.5c0,0-0.1-0.1-0.1-0.1c-0.6-0.5-1.3-0.9-1.9-1.3c-0.5-0.3-1-0.7-1.5-1c0,0,0,0-0.1,0
		c-0.3-0.2-0.6-0.3-0.8-0.5c0,0-0.1-0.1-0.1-0.1c-0.3-0.2-0.6-0.3-0.8-0.5c0,0-0.1,0-0.1-0.1c-0.8-0.4-1.6-0.8-2.3-1.2
		c-0.5-0.2-1-0.5-1.4-0.7c0,0,0,0,0,0C99.3,8,99,7.8,98.7,7.7c0,0-0.1,0-0.1-0.1c-0.3-0.1-0.6-0.3-0.9-0.4c0,0,0,0-0.1,0
		c-1.3-0.5-2.7-1-4.1-1.5c0,0,0,0,0,0c-0.3-0.1-0.7-0.2-1-0.3c0,0-0.1,0-0.1,0c-0.3-0.1-0.6-0.2-1-0.3c0,0,0,0,0,0c0,0,0,0,0,0
		c-4.5-1.2-9.3-1.9-14.2-1.9c-7.8,0-15.3,1.7-22,4.7c0,0,0,0,0,0c0,0,0,0,0,0C55.2,8,55.1,8,55,8c-0.3,0.1-0.5,0.3-0.8,0.4
		c-0.1,0.1-0.2,0.1-0.3,0.2c-0.3,0.2-0.6,0.3-1,0.5c-0.1,0-0.2,0.1-0.3,0.1c-0.3,0.1-0.5,0.3-0.8,0.4c-0.1,0.1-0.2,0.1-0.3,0.2
		c-0.3,0.2-0.6,0.3-0.9,0.5c-0.1,0.1-0.2,0.1-0.3,0.2c-0.2,0.1-0.5,0.3-0.7,0.4c-0.1,0.1-0.2,0.1-0.3,0.2c-0.3,0.2-0.6,0.4-0.9,0.5
		c-0.1,0.1-0.2,0.1-0.3,0.2c-0.2,0.1-0.4,0.3-0.6,0.4c-0.1,0.1-0.2,0.2-0.3,0.2c-0.3,0.2-0.6,0.4-0.8,0.6c-0.1,0.1-0.2,0.2-0.3,0.2
		c-0.2,0.1-0.4,0.3-0.6,0.4c-0.1,0.1-0.2,0.2-0.3,0.3c-0.3,0.2-0.5,0.4-0.8,0.6c-0.1,0.1-0.2,0.2-0.3,0.3c-0.2,0.1-0.4,0.3-0.5,0.4
		c-0.1,0.1-0.2,0.2-0.3,0.3c-0.3,0.2-0.5,0.4-0.7,0.6c-0.1,0.1-0.2,0.2-0.3,0.3c-0.2,0.1-0.3,0.3-0.5,0.4c-0.1,0.1-0.2,0.2-0.3,0.3
		c-0.2,0.2-0.5,0.4-0.7,0.7c-0.1,0.1-0.2,0.2-0.4,0.3c-0.2,0.1-0.3,0.3-0.5,0.4c-0.1,0.1-0.2,0.2-0.3,0.3c-0.2,0.2-0.4,0.4-0.7,0.7
		c-0.1,0.1-0.2,0.2-0.4,0.4c-0.1,0.1-0.3,0.3-0.4,0.4c-0.1,0.1-0.2,0.2-0.3,0.4c-0.2,0.2-0.4,0.5-0.6,0.7c-0.1,0.1-0.2,0.3-0.4,0.4
		c-0.1,0.1-0.2,0.3-0.4,0.4c-0.2,0.2-0.3,0.4-0.5,0.6c-0.2,0.2-0.3,0.4-0.4,0.6c-0.1,0.1-0.2,0.3-0.3,0.4c-0.1,0.1-0.2,0.3-0.3,0.4
		c-0.2,0.2-0.3,0.5-0.5,0.7c-0.1,0.2-0.2,0.3-0.4,0.5c-0.1,0.2-0.2,0.3-0.3,0.5c-0.1,0.1-0.2,0.3-0.3,0.4c-0.2,0.3-0.4,0.5-0.5,0.8
		c-0.1,0.1-0.2,0.3-0.3,0.4c-0.1,0.2-0.2,0.3-0.3,0.5c-0.1,0.1-0.2,0.3-0.2,0.4c-0.2,0.3-0.4,0.6-0.5,0.9c-0.1,0.1-0.2,0.3-0.2,0.4
		c-0.1,0.2-0.2,0.4-0.3,0.6c-0.1,0.1-0.1,0.2-0.2,0.4c-0.2,0.3-0.3,0.6-0.5,1c-0.1,0.1-0.1,0.2-0.2,0.4c-0.1,0.2-0.2,0.4-0.3,0.6
		c-0.1,0.1-0.1,0.2-0.2,0.3c-0.2,0.3-0.3,0.7-0.5,1c-0.1,0.1-0.1,0.2-0.2,0.3c-0.1,0.2-0.2,0.4-0.3,0.6c0,0.1-0.1,0.2-0.1,0.3
		c-0.2,0.4-0.3,0.7-0.5,1.1c0,0.1-0.1,0.2-0.1,0.3c-0.1,0.2-0.2,0.4-0.3,0.7c0,0.1-0.1,0.2-0.1,0.3c-0.2,0.4-0.3,0.8-0.4,1.2
		c0,0.1-0.1,0.2-0.1,0.3c-0.1,0.2-0.2,0.5-0.2,0.7c0,0.1,0,0.1-0.1,0.2c-0.1,0.4-0.3,0.8-0.4,1.3c0,0.1-0.1,0.2-0.1,0.3
		c-0.1,0.2-0.1,0.5-0.2,0.7c0,0.1,0,0.1,0,0.2c-0.1,0.5-0.2,0.9-0.4,1.4c0,0.1,0,0.2-0.1,0.3c-0.1,0.2-0.1,0.5-0.2,0.7c0,0,0,0,0,0
		c-0.1,0.5-0.2,1-0.3,1.5c0,0.1,0,0.2-0.1,0.3c-0.1,0.8-0.3,1.6-0.4,2.3c0,0.1,0,0.2,0,0.3c0,0.3-0.1,0.5-0.1,0.8c0,0,0,0,0,0
		c-0.3,2.1-0.4,4.3-0.4,6.6c0,20,11,37.5,27.3,46.6c0,0,0,0,0,0c0,0,0.1,0,0.1,0.1c0.4,0.2,0.9,0.5,1.3,0.7c0.1,0,0.1,0.1,0.2,0.1
		c0.2,0.1,0.5,0.2,0.7,0.3c0.1,0,0.2,0.1,0.2,0.1c0.7,0.4,1.4,0.7,2.2,1c0.1,0,0.1,0.1,0.2,0.1c0.8,0.3,1.5,0.6,2.3,0.9
		c0.1,0,0.1,0,0.2,0.1c0.8,0.3,1.6,0.6,2.5,0.9c0,0,0,0,0.1,0c1.1,0.4,2.3,0.7,3.5,1c0,0,0,0,0,0c0,0,0,0,0,0
		c4.1,1,8.4,1.6,12.9,1.6c14.6,0,27.8-5.8,37.5-15.3c0,0,0,0,0,0c0,0,0,0,0,0c0.3-0.3,0.6-0.6,0.9-0.9c0,0,0,0,0,0
		c0.3-0.3,0.6-0.6,0.9-0.9c0,0,0,0,0,0c0.3-0.3,0.6-0.6,0.9-1c0,0,0,0,0,0c0.3-0.3,0.6-0.6,0.8-1c0,0,0,0,0,0c0.3-0.3,0.5-0.7,0.8-1
		c0,0,0,0,0,0c0.3-0.3,0.5-0.7,0.8-1c0,0,0,0,0,0c0.3-0.3,0.5-0.7,0.8-1c0,0,0,0,0,0c0.2-0.3,0.5-0.7,0.7-1c0,0,0,0,0,0
		c0.2-0.3,0.5-0.7,0.7-1.1c0,0,0,0,0,0c0.2-0.3,0.5-0.7,0.7-1.1c0,0,0,0,0,0c0.2-0.4,0.4-0.7,0.6-1.1c0,0,0,0,0-0.1
		c0.2-0.4,0.4-0.7,0.6-1.1c0,0,0-0.1,0-0.1c0.2-0.4,0.4-0.7,0.6-1.1c0,0,0-0.1,0.1-0.1c0.2-0.3,0.4-0.7,0.5-1.1c0,0,0-0.1,0.1-0.1
		c0.2-0.3,0.3-0.7,0.5-1c0,0,0-0.1,0.1-0.1C126.1,78.7,126.3,78.3,126.4,78z M88,98.4H76.1h-9V79.2V33.7l-7.8-0.1l0-3l0-7.5l6.2-5.5
		l3.9-3.5H88V98.4z M93.3,48.4c0-3.3,2.7-6,6-6c3.3,0,6,2.7,6,6c0,3.3-2.7,6-6,6C96,54.4,93.3,51.7,93.3,48.4z M95.7,67.9l18.7-25.7
		h4.4l-1,1.4l-13,17.8l-4.7,6.5H95.7z M109,61.9c0-3.3,2.7-6,6-6c3.3,0,6,2.7,6,6c0,3.3-2.7,6-6,6c-0.2,0-0.4,0-0.5,0
		c-1-0.1-1.9-0.4-2.6-0.9C110.1,66,109,64.1,109,61.9z"/>
	<path class="st0" d="M117.7,61.9c0-1.5-1.2-2.7-2.7-2.7c-1.5,0-2.7,1.2-2.7,2.7c0,1.5,1.2,2.7,2.7,2.7
		C116.5,64.6,117.7,63.4,117.7,61.9z"/>
	<polygon class="st0" points="14.1,135.1 24.5,135.1 24.5,130 14.1,130 14.1,126.2 25.6,126.2 25.6,120.9 8,120.9 8,142.9 
		14.1,142.9 	"/>
	<path class="st0" d="M39.7,120.4c-6.8,0-11.9,5.1-11.9,11.5v0.1c0,6.3,5,11.4,11.9,11.4c6.8,0,11.9-5.1,11.9-11.5v-0.1
		C51.6,125.5,46.5,120.4,39.7,120.4z M45.3,132c0,3.2-2.2,5.9-5.6,5.9c-3.3,0-5.6-2.8-5.6-6v-0.1c0-3.2,2.2-5.9,5.6-5.9
		C43,125.9,45.3,128.7,45.3,132L45.3,132z"/>
	<path class="st0" d="M74.5,128.5L74.5,128.5c0-2.2-0.7-3.9-2-5.2c-1.5-1.5-3.8-2.4-7.2-2.4H54.9v22.1H61v-6.7h2.6h0.1l4.4,6.7h7.1
		l-5.3-7.7C72.7,134.1,74.5,131.8,74.5,128.5z M68.3,128.8c0,1.6-1.2,2.6-3.3,2.6h-4v-5.3h4C67.1,126.2,68.3,127,68.3,128.8
		L68.3,128.8z"/>
	<polygon class="st0" points="95.1,142.9 95.1,126.2 101.7,126.2 101.7,120.9 82.4,120.9 82.4,126.2 89,126.2 89,142.9 	"/>
	<polygon class="st0" points="118.5,129.1 110.7,129.1 110.7,120.9 104.6,120.9 104.6,142.9 110.7,142.9 110.7,134.5 118.5,134.5 
		118.5,142.9 124.6,142.9 124.6,120.9 118.5,120.9 	"/>
	<polygon class="st0" points="134.8,137.7 134.8,134.2 145.4,134.2 145.4,129.4 134.8,129.4 134.8,126.1 146.5,126.1 146.5,120.9 
		128.7,120.9 128.7,142.9 146.6,142.9 146.6,137.7 	"/>
	<path class="st0" d="M18,147.3H7.8V171h6.6v-6.8h3.2c5.9,0,10.2-2.9,10.2-8.5v-0.1C27.8,150.4,23.9,147.3,18,147.3z M21.2,156
		c0,1.9-1.4,3.1-3.7,3.1h-3.1v-6.2h3.1C19.8,152.8,21.2,153.9,21.2,156L21.2,156z"/>
	<polygon class="st0" points="48.5,165.2 37.1,165.2 37.1,147.3 30.5,147.3 30.5,171 48.5,171 	"/>
	<path class="st0" d="M56.3,171l1.7-4.2h9.1l1.7,4.2h7l-10.1-23.8h-6.3L49.5,171H56.3z M62.6,154.9l2.6,6.7H60L62.6,154.9z"/>
	<polygon class="st0" points="94,159.8 84.3,147.3 78.2,147.3 78.2,171 84.7,171 84.7,158 94.8,171 100.5,171 100.5,147.3 94,147.3 
			"/>
	<polygon class="st0" points="111.2,161.6 122.5,161.6 122.5,156.5 111.2,156.5 111.2,152.9 123.7,152.9 123.7,147.3 104.7,147.3 
		104.7,171 123.9,171 123.9,165.4 111.2,165.4 	"/>
	<polygon class="st0" points="125.9,153.1 133,153.1 133,171 139.5,171 139.5,153.1 146.6,153.1 146.6,147.3 125.9,147.3 	"/>
	<path class="st0" d="M143.1,166.8c-1.2,0-2.1,0.9-2.1,2.1v0c0,1.1,0.9,2.1,2.1,2.1c1.2,0,2.1-0.9,2.1-2.1v0
		C145.1,167.7,144.2,166.8,143.1,166.8z M144.8,168.9c0,0.9-0.7,1.7-1.7,1.7c-1,0-1.7-0.8-1.7-1.7v0c0-0.9,0.7-1.7,1.7-1.7
		C144.1,167.1,144.8,167.9,144.8,168.9L144.8,168.9z"/>
	<path class="st0" d="M144.1,168.5c0-0.5-0.4-0.7-0.9-0.7h-1v2.1h0.6v-0.6h0.2l0.4,0.6h0.7l-0.5-0.7
		C143.9,169.1,144.1,168.8,144.1,168.5z M143.2,168.8h-0.4v-0.5h0.4c0.2,0,0.3,0.1,0.3,0.2C143.5,168.7,143.4,168.8,143.2,168.8z"/>
	<rect x="44.9" y="183.6" class="st0" width="8" height="1.6"/>
	<polygon class="st0" points="59.5,183.3 57.9,180.6 55.9,180.6 55.9,187.5 57.7,187.5 57.7,183.6 59.5,186.2 59.5,186.2 
		61.3,183.5 61.3,187.5 63.2,187.5 63.2,180.6 61.2,180.6 	"/>
	<polygon class="st0" points="66.3,184.8 69.5,184.8 69.5,183.3 66.3,183.3 66.3,182.2 69.9,182.2 69.9,180.6 64.4,180.6 
		64.4,187.5 69.9,187.5 69.9,185.8 66.3,185.8 	"/>
	<polygon class="st0" points="74.5,183.3 72.9,180.6 70.9,180.6 70.9,187.5 72.8,187.5 72.8,183.6 74.5,186.2 74.5,186.2 
		76.3,183.5 76.3,187.5 78.2,187.5 78.2,180.6 76.2,180.6 	"/>
	<path class="st0" d="M84.2,183.9c0.6-0.3,1.1-0.7,1.1-1.5v0c0-0.5-0.2-0.8-0.4-1.1c-0.4-0.4-1-0.6-1.9-0.6h-3.5v6.8h3.5
		c1.6,0,2.6-0.7,2.6-1.9v0C85.5,184.6,85,184.2,84.2,183.9z M81.3,182.2h1.2c0.6,0,0.9,0.2,0.9,0.6v0c0,0.4-0.3,0.6-0.9,0.6h-1.2
		V182.2z M83.6,185.3c0,0.4-0.3,0.6-0.9,0.6h-1.5v-1.3h1.4C83.3,184.7,83.6,184.9,83.6,185.3L83.6,185.3z"/>
	<polygon class="st0" points="88.3,184.8 91.6,184.8 91.6,183.3 88.3,183.3 88.3,182.2 91.9,182.2 91.9,180.6 86.4,180.6 
		86.4,187.5 92,187.5 92,185.8 88.3,185.8 	"/>
	<path class="st0" d="M99,183L99,183c0-0.7-0.2-1.2-0.6-1.6c-0.5-0.5-1.2-0.7-2.2-0.7h-3.2v6.8h1.9v-2.1h0.8h0l1.4,2.1h2.2l-1.6-2.4
		C98.5,184.7,99,184,99,183z M97.1,183.1c0,0.5-0.4,0.8-1,0.8h-1.3v-1.6h1.2C96.7,182.3,97.1,182.5,97.1,183.1L97.1,183.1z"/>
	<rect x="101.5" y="183.6" class="st0" width="8" height="1.6"/>
</g>
</svg>
